
<svg width="16px" height="16px" viewBox="0 0 16 16" version="1.1" xmlns="http://www.w3.org/2000/svg" xmlns:xlink="http://www.w3.org/1999/xlink">
    <g id="Symbols" stroke="none" stroke-width="1" fill="none" fill-rule="evenodd">
        <g id="⚙️/Close/White" transform="translate(-4.000000, -4.000000)" fill="#FFFFFF">
            <g id="e-remove" transform="translate(4.000000, 4.000000)">
                <path d="M15.7,0.3 C15.3,-0.1 14.7,-0.1 14.3,0.3 L8,6.6 L1.7,0.3 C1.3,-0.1 0.7,-0.1 0.3,0.3 C-0.1,0.7 -0.1,1.3 0.3,1.7 L6.6,8 L0.3,14.3 C-0.1,14.7 -0.1,15.3 0.3,15.7 C0.5,15.9 0.7,16 1,16 C1.3,16 1.5,15.9 1.7,15.7 L8,9.4 L14.3,15.7 C14.5,15.9 14.8,16 15,16 C15.2,16 15.5,15.9 15.7,15.7 C16.1,15.3 16.1,14.7 15.7,14.3 L9.4,8 L15.7,1.7 C16.1,1.3 16.1,0.7 15.7,0.3 Z" id="Path"></path>
            </g>
        </g>
    </g>
</svg>