<?xml version="1.0" encoding="UTF-8"?>
<svg width="16px" height="18px" viewBox="0 0 16 18" version="1.1" xmlns="http://www.w3.org/2000/svg" xmlns:xlink="http://www.w3.org/1999/xlink">
    <!-- Generator: Sketch 52.2 (67145) - http://www.bohemiancoding.com/sketch -->
    <title>Contracts</title>
    <desc>Created with Sketch.</desc>
    <defs>
        <path d="M14.2222222,1.77777778 L10.5066667,1.77777778 C10.1333333,0.746666667 9.15555556,0 8,0 C6.84444444,0 5.86666667,0.746666667 5.49333333,1.77777778 L1.77777778,1.77777778 C0.8,1.77777778 0,2.57777778 0,3.55555556 L0,16 C0,16.9777778 0.8,17.7777778 1.77777778,17.7777778 L14.2222222,17.7777778 C15.2,17.7777778 16,16.9777778 16,16 L16,3.55555556 C16,2.57777778 15.2,1.77777778 14.2222222,1.77777778 L14.2222222,1.77777778 Z M8,1.77777778 C8.48888889,1.77777778 8.88888889,2.17777778 8.88888889,2.66666667 C8.88888889,3.15555556 8.48888889,3.55555556 8,3.55555556 C7.51111111,3.55555556 7.11111111,3.15555556 7.11111111,2.66666667 C7.11111111,2.17777778 7.51111111,1.77777778 8,1.77777778 L8,1.77777778 Z M9.77777778,14.2222222 L3.55555556,14.2222222 L3.55555556,12.4444444 L9.77777778,12.4444444 L9.77777778,14.2222222 L9.77777778,14.2222222 Z M12.4444444,10.6666667 L3.55555556,10.6666667 L3.55555556,8.88888889 L12.4444444,8.88888889 L12.4444444,10.6666667 L12.4444444,10.6666667 Z M12.4444444,7.11111111 L3.55555556,7.11111111 L3.55555556,5.33333333 L12.4444444,5.33333333 L12.4444444,7.11111111 L12.4444444,7.11111111 Z" id="path-1"></path>
    </defs>
    <g id="Page-1" stroke="none" stroke-width="1" fill="none" fill-rule="evenodd">
        <g id="option-3" transform="translate(-83.000000, -342.000000)">
            <g id="Smart-Contract" transform="translate(63.000000, 332.000000)">
                <g id="Contracts" transform="translate(20.000000, 10.000000)">
                    <mask id="mask-2" fill="white">
                        <use xlink:href="#path-1"></use>
                    </mask>
                    <use id="Mask" fill="#FFFFFF" xlink:href="#path-1"></use>
                </g>
            </g>
        </g>
    </g>
</svg>