<?xml version="1.0" encoding="UTF-8"?>
<svg width="14px" height="16px" viewBox="0 0 14 16" version="1.1" xmlns="http://www.w3.org/2000/svg" xmlns:xlink="http://www.w3.org/1999/xlink">
    <!-- Generator: Sketch 54.1 (76490) - https://sketchapp.com -->
    <title>Icon/16px </title>
    <desc>Created with Sketch.</desc>
    <g id="ðŸ–¥-Desktop" stroke="none" stroke-width="1" fill="none" fill-rule="evenodd" opacity="0.3">
        <g id="Dashboard-" transform="translate(-616.000000, -422.000000)" fill="#FFFFFF">
            <g id="Stat-Row" transform="translate(290.000000, 327.000000)">
                <g id="2" transform="translate(300.000000, 0.000000)">
                    <g id="Icon/16px-" transform="translate(25.000000, 95.000000)">
                        <g id="âš™ï¸/MoneyBag/White">
                            <g id="money-bag" transform="translate(1.000000, 0.000000)">
                                <path d="M13.2,11.5 L9.9,5.5 C9.7,5.2 9.4,5 9,5 L5,5 C4.6,5 4.3,5.2 4.1,5.5 L0.8,11.5 C0.3,12.4 0.3,13.6 0.8,14.5 C1.4,15.4 2.3,16 3.4,16 L10.6,16 C11.7,16 12.6,15.4 13.2,14.5 C13.7,13.6 13.7,12.5 13.2,11.5 Z" id="Path"></path>
                                <path d="M4.3,2.7 C4.5,2.9 4.7,3 5,3 L9,3 C9.3,3 9.5,2.9 9.7,2.7 L10.7,1.7 C11.2,1.1 11,0 10,0 L4,0 C3,0 2.7,1.1 3.3,1.7 L4.3,2.7 Z" id="Path"></path>
                            </g>
                        </g>
                    </g>
                </g>
            </g>
        </g>
    </g>
</svg>