<?xml version="1.0" encoding="UTF-8"?>
<svg width="25px" height="18px" viewBox="0 0 25 18" version="1.1" xmlns="http://www.w3.org/2000/svg" xmlns:xlink="http://www.w3.org/1999/xlink">
    <!-- Generator: Sketch 54.1 (76490) - https://sketchapp.com -->
    <title>Shape</title>
    <desc>Created with Sketch.</desc>
    <g id="🖥-Desktop" stroke="none" stroke-width="1" fill="none" fill-rule="evenodd">
        <g id="Dashboard-" transform="translate(-31.000000, -94.000000)" fill="#171d39" fill-rule="nonzero">
            <g id="discord-icon" transform="translate(31.000000, 94.000000)">
                <path d="M25,14.7428893 C25,14.7428893 23.1806506,17.8500013 18.4503425,18 C18.4503425,18 17.6797945,17.0785805 17.0376712,16.2643028 C19.8416095,15.4714535 20.911815,13.714328 20.911815,13.714328 C20.0342466,14.2928937 19.1994862,14.7000326 18.4503425,14.9786013 C13.8387602,16.9177004 8.70695767,16.2540909 5.09417808,14.2286086 C5.05070098,14.1995632 4.53148411,13.9135449 4.21660959,13.6928997 C4.21660959,13.6928997 5.24400684,15.4071684 7.96232877,16.2214462 C7.32020548,17.0357238 6.52825342,18 6.52825342,18 C1.7979452,17.8500013 0,14.7428893 0,14.7428893 C0,7.84295764 3.08219178,2.2501558 3.08219178,2.2501558 C6.16438356,-0.0641070024 9.09674658,0.000178075004 9.09674658,0.000178075004 L9.31078767,0.257318385 C5.45804794,1.37159308 3.68150684,3.06443346 3.68150684,3.06443346 C3.68150684,3.06443346 4.15239727,2.80729315 4.94434931,2.44301103 C9.87632438,0.274143003 15.8488234,0.274645227 20.9332192,3.06443346 C20.9332192,3.06443346 19.2422945,1.45730651 15.6035959,0.343031821 L15.9032534,0.000178075004 C15.9032534,0.000178075004 18.8356164,-0.0641070024 21.9178083,2.2501558 C21.9178083,2.2501558 25,7.84295764 25,14.7428893 Z M18,10.5 C18,9.12612611 17.1176471,8 16,8 C14.8823529,8 14,9.12612611 14,10.5 C14,11.8738739 14.9019608,13 16,13 C17.1176471,13 18,11.8738739 18,10.5 Z M7.99984316,8 C6.88228375,8 6,9.12612611 6,10.5 C6,11.8738739 6.90189006,13 7.99984316,13 C9.11740261,13 9.99968628,11.8738739 9.99968628,10.4999999 C10.0192927,9.12612611 9.11740261,8 7.99984316,8 Z" id="Shape"></path>
            </g>
        </g>
    </g>
</svg>