<?xml version="1.0" encoding="UTF-8"?>
<svg width="16px" height="16px" viewBox="0 0 16 16" version="1.1" xmlns="http://www.w3.org/2000/svg" xmlns:xlink="http://www.w3.org/1999/xlink">
    <!-- Generator: Sketch 52.2 (67145) - http://www.bohemiancoding.com/sketch -->
    <title>Action/ic_power_settings_new</title>
    <desc>Created with Sketch.</desc>
    <defs>
        <path d="M8.88888889,0 L7.11111111,0 L7.11111111,8.88888889 L8.88888889,8.88888889 L8.88888889,0 L8.88888889,0 Z M13.1822222,1.92888889 L11.92,3.19111111 C13.3244444,4.32 14.2222222,6.05333333 14.2222222,8 C14.2222222,11.44 11.44,14.2222222 8,14.2222222 C4.56,14.2222222 1.77777778,11.44 1.77777778,8 C1.77777778,6.05333333 2.67555556,4.32 4.07111111,3.18222222 L2.81777778,1.92888889 C1.09333333,3.39555556 0,5.56444444 0,8 C0,12.4177778 3.58222222,16 8,16 C12.4177778,16 16,12.4177778 16,8 C16,5.56444444 14.9066667,3.39555556 13.1822222,1.92888889 L13.1822222,1.92888889 Z" id="path-1"></path>
    </defs>
    <g id="Page-1" stroke="none" stroke-width="1" fill="none" fill-rule="evenodd">
        <g id="option-3" transform="translate(-81.000000, -439.000000)">
            <g id="Action/ic_power_settings_new" transform="translate(81.000000, 439.000000)">
                <mask id="mask-2" fill="white">
                    <use xlink:href="#path-1"></use>
                </mask>
                <use id="Mask" fill="#FFFFFF" xlink:href="#path-1"></use>
            </g>
        </g>
    </g>
</svg>