
<svg width="16px" height="16px" viewBox="0 0 16 16" version="1.1" xmlns="http://www.w3.org/2000/svg" xmlns:xlink="http://www.w3.org/1999/xlink">
    <g id="Symbols" stroke="none" stroke-width="1" fill="none" fill-rule="evenodd">
        <g id="⚙️/Validator/White" transform="translate(-4.000000, -4.000000)" fill="#FFFFFF">
            <g id="ic_grain_24px" transform="translate(4.000000, 4.000000)">
                <path d="M6,8 C4.9,8 4,8.9 4,10 C4,11.1 4.9,12 6,12 C7.1,12 8,11.1 8,10 C8,8.9 7.1,8 6,8 Z M2,4 C0.9,4 0,4.9 0,6 C0,7.1 0.9,8 2,8 C3.1,8 4,7.1 4,6 C4,4.9 3.1,4 2,4 Z M2,12 C0.9,12 0,12.9 0,14 C0,15.1 0.9,16 2,16 C3.1,16 4,15.1 4,14 C4,12.9 3.1,12 2,12 Z M14,4 C15.1,4 16,3.1 16,2 C16,0.9 15.1,0 14,0 C12.9,0 12,0.9 12,2 C12,3.1 12.9,4 14,4 Z M10,12 C8.9,12 8,12.9 8,14 C8,15.1 8.9,16 10,16 C11.1,16 12,15.1 12,14 C12,12.9 11.1,12 10,12 Z M14,8 C12.9,8 12,8.9 12,10 C12,11.1 12.9,12 14,12 C15.1,12 16,11.1 16,10 C16,8.9 15.1,8 14,8 Z M10,4 C8.9,4 8,4.9 8,6 C8,7.1 8.9,8 10,8 C11.1,8 12,7.1 12,6 C12,4.9 11.1,4 10,4 Z M6,0 C4.9,0 4,0.9 4,2 C4,3.1 4.9,4 6,4 C7.1,4 8,3.1 8,2 C8,0.9 7.1,0 6,0 Z" id="Shape"></path>
            </g>
        </g>
    </g>
</svg>