
<svg width="24px" height="24px" viewBox="0 0 24 24" version="1.1" xmlns="http://www.w3.org/2000/svg" xmlns:xlink="http://www.w3.org/1999/xlink">
    <g id="Symbols" stroke="none" stroke-width="1" fill="none" fill-rule="evenodd" stroke-linecap="square">
        <g id="⚙️/Settings/White" stroke="#FFFFFF" stroke-width="2">
            <g id="gear" transform="translate(1.000000, 1.000000)">
                <path d="M22,11 C22,9.895 21.105,9 20,9 L18.738,9 C18.549,8.268 18.261,7.578 17.886,6.942 L18.778,6.05 C19.559,5.269 19.559,4.003 18.778,3.222 C17.997,2.441 16.731,2.441 15.95,3.222 L15.058,4.114 C14.422,3.739 13.732,3.451 13,3.262 L13,2 C13,0.896 12.105,0 11,0 C9.895,0 9,0.895 9,2 L9,3.262 C8.268,3.451 7.578,3.739 6.942,4.114 L6.05,3.222 C5.269,2.441 4.003,2.441 3.222,3.222 C2.441,4.003 2.441,5.269 3.222,6.05 L4.114,6.942 C3.739,7.578 3.451,8.268 3.262,9 L2,9 C0.896,9 0,9.895 0,11 C0,12.105 0.895,13 2,13 L3.262,13 C3.451,13.732 3.739,14.422 4.114,15.058 L3.222,15.95 C2.441,16.731 2.441,17.997 3.222,18.778 C4.003,19.559 5.269,19.559 6.05,18.778 L6.942,17.886 C7.577,18.261 8.268,18.549 9,18.738 L9,20 C9,21.104 9.895,22 11,22 C12.105,22 13,21.105 13,20 L13,18.738 C13.732,18.549 14.422,18.261 15.058,17.886 L15.95,18.778 C16.731,19.559 17.997,19.559 18.778,18.778 C19.559,17.997 19.559,16.731 18.778,15.95 L17.886,15.058 C18.261,14.423 18.549,13.732 18.738,13 L20,13 C21.104,13 22,12.105 22,11 Z" id="Path"></path>
                <circle id="Oval" cx="11" cy="11" r="3"></circle>
            </g>
        </g>
    </g>
</svg>