<?xml version="1.0" encoding="UTF-8"?>
<svg width="18px" height="18px" viewBox="0 0 18 18" version="1.1" xmlns="http://www.w3.org/2000/svg" xmlns:xlink="http://www.w3.org/1999/xlink">
    <!-- Generator: Sketch 52.2 (67145) - http://www.bohemiancoding.com/sketch -->
    <title>Network</title>
    <desc>Created with Sketch.</desc>
    <g id="Page-1" stroke="none" stroke-width="1" fill="none" fill-rule="evenodd" stroke-linecap="round">
        <g id="option-3" transform="translate(-82.000000, -247.000000)" stroke="#FFFFFF" stroke-width="2">
            <g id="Network" transform="translate(83.000000, 248.000000)">
                <path d="M3.34883721,15.6190476 C3.34883721,15.8293333 3.18213953,16 2.97674419,16 L0.372093023,16 C0.166697674,16 0,15.8293333 0,15.6190476 L0,6.0952381 C0,5.88495238 0.166697674,5.71428571 0.372093023,5.71428571 L2.97674419,5.71428571 C3.18213953,5.71428571 3.34883721,5.88495238 3.34883721,6.0952381 L3.34883721,15.6190476 L3.34883721,15.6190476 Z" id="Stroke-274"></path>
                <path d="M16,15.6190476 C16,15.8293333 15.8333023,16 15.627907,16 L13.0232558,16 C12.8178605,16 12.6511628,15.8293333 12.6511628,15.6190476 L12.6511628,9.9047619 C12.6511628,9.69447619 12.8178605,9.52380952 13.0232558,9.52380952 L15.627907,9.52380952 C15.8333023,9.52380952 16,9.69447619 16,9.9047619 L16,15.6190476 L16,15.6190476 Z" id="Stroke-276"></path>
                <path d="M9.6744186,15.6190476 C9.6744186,15.8293333 9.50772093,16 9.30232558,16 L6.69767442,16 C6.49227907,16 6.3255814,15.8293333 6.3255814,15.6190476 L6.3255814,0.380952381 C6.3255814,0.170666667 6.49227907,0 6.69767442,0 L9.30232558,0 C9.50772093,0 9.6744186,0.170666667 9.6744186,0.380952381 L9.6744186,15.6190476 L9.6744186,15.6190476 Z" id="Stroke-278"></path>
            </g>
        </g>
    </g>
</svg>