<?xml version="1.0" encoding="UTF-8"?>
<svg width="20px" height="20px" viewBox="0 0 20 20" version="1.1" xmlns="http://www.w3.org/2000/svg" xmlns:xlink="http://www.w3.org/1999/xlink">
    <!-- Generator: sketchtool 52.2 (67145) - http://www.bohemiancoding.com/sketch -->
    <title>B250FC3D-99A8-457B-9737-9A2A809B745D</title>
    <desc>Created with sketchtool.</desc>
    <defs>
        <path d="M13,7 L11,7 L11,11 L7,11 L7,13 L11,13 L11,17 L13,17 L13,13 L17,13 L17,11 L13,11 L13,7 L13,7 Z M12,2 C6.48,2 2,6.48 2,12 C2,17.52 6.48,22 12,22 C17.52,22 22,17.52 22,12 C22,6.48 17.52,2 12,2 L12,2 Z M12,20 C7.59,20 4,16.41 4,12 C4,7.59 7.59,4 12,4 C16.41,4 20,7.59 20,12 C20,16.41 16.41,20 12,20 L12,20 Z" id="path-1"></path>
    </defs>
    <g id="Page-1" stroke="none" stroke-width="1" fill="none" fill-rule="evenodd">
        <g id="Validator-Design" transform="translate(-501.000000, -185.000000)">
            <g id="your-stake" transform="translate(499.000000, 158.000000)">
                <g id="add-icon" transform="translate(0.000000, 25.000000)">
                    <polygon id="Bounds" points="0 0 24 0 24 24 0 24"></polygon>
                    <mask id="mask-2" fill="white">
                        <use xlink:href="#path-1"></use>
                    </mask>
                    <use id="Mask" fill="#FFFFFF" xlink:href="#path-1"></use>
                </g>
            </g>
        </g>
    </g>
</svg>