
<svg width="16px" height="16px" viewBox="0 0 16 16" version="1.1" xmlns="http://www.w3.org/2000/svg" xmlns:xlink="http://www.w3.org/1999/xlink">
    <g id="Symbols" stroke="none" stroke-width="1" fill="none" fill-rule="evenodd">
        <g id="⚙️/Error/Red" fill="#D63954" fill-rule="nonzero">
            <g id="c-warning-e">
                <path d="M8,0 C3.6,0 0,3.6 0,8 C0,12.4 3.6,16 8,16 C12.4,16 16,12.4 16,8 C16,3.6 12.4,0 8,0 Z M8,14 C4.7,14 2,11.3 2,8 C2,4.7 4.7,2 8,2 C11.3,2 14,4.7 14,8 C14,11.3 11.3,14 8,14 Z" id="Shape"></path>
                <rect id="Rectangle" x="7" y="4" width="2" height="5"></rect>
                <circle id="Oval" cx="8" cy="11" r="1"></circle>
            </g>
        </g>
    </g>
</svg>