<?xml version="1.0" encoding="UTF-8"?>
<svg width="16px" height="17px" viewBox="0 0 16 17" version="1.1" xmlns="http://www.w3.org/2000/svg" xmlns:xlink="http://www.w3.org/1999/xlink">
    <!-- Generator: Sketch 52.2 (67145) - http://www.bohemiancoding.com/sketch -->
    <title>settings icon</title>
    <desc>Created with Sketch.</desc>
    <defs>
        <path d="M13.9720943,8.82507002 C14.0042439,8.56787308 14.0283561,8.31067614 14.0283561,8.03740439 C14.0283561,7.76413264 14.0042439,7.5069357 13.9720943,7.24973876 L15.6679866,5.92356704 C15.8206973,5.80300597 15.8608844,5.58599605 15.7644355,5.40917316 L14.1569546,2.62823124 C14.0605058,2.45140834 13.8434958,2.3871091 13.666673,2.45140834 L11.6653593,3.25514878 C11.2474142,2.9336526 10.7973196,2.66841826 10.3070379,2.46748315 L10.0016165,0.337570985 C9.97750434,0.144673279 9.80871884,0 9.60778373,0 L6.39282198,0 C6.19188687,0 6.02310137,0.144673279 5.99898916,0.337570985 L5.69356779,2.46748315 C5.20328613,2.66841826 4.75319148,2.94169001 4.33524645,3.25514878 L2.33393276,2.45140834 C2.14907246,2.3790717 1.94009994,2.45140834 1.84365109,2.62823124 L0.236170211,5.40917316 C0.131683954,5.58599605 0.17990838,5.80300597 0.332619064,5.92356704 L2.02851139,7.24973876 C1.99636177,7.5069357 1.97224956,7.77217005 1.97224956,8.03740439 C1.97224956,8.30263874 1.99636177,8.56787308 2.02851139,8.82507002 L0.332619064,10.1512417 C0.17990838,10.2718028 0.139721358,10.4888127 0.236170211,10.6656356 L1.84365109,13.4465775 C1.94009994,13.6234004 2.15710986,13.6876997 2.33393276,13.6234004 L4.33524645,12.81966 C4.75319148,13.1411562 5.20328613,13.4063905 5.69356779,13.6073256 L5.99898916,15.7372378 C6.02310137,15.9301355 6.19188687,16.0748088 6.39282198,16.0748088 L9.60778373,16.0748088 C9.80871884,16.0748088 9.97750434,15.9301355 10.0016165,15.7372378 L10.3070379,13.6073256 C10.7973196,13.4063905 11.2474142,13.1331188 11.6653593,12.81966 L13.666673,13.6234004 C13.8515333,13.6957371 14.0605058,13.6234004 14.1569546,13.4465775 L15.7644355,10.6656356 C15.8608844,10.4888127 15.8206973,10.2718028 15.6679866,10.1512417 L13.9720943,8.82507002 L13.9720943,8.82507002 Z M8.00030286,10.8504959 C6.44908381,10.8504959 5.18721132,9.58862344 5.18721132,8.03740439 C5.18721132,6.48618535 6.44908381,5.22431286 8.00030286,5.22431286 C9.5515219,5.22431286 10.8133944,6.48618535 10.8133944,8.03740439 C10.8133944,9.58862344 9.5515219,10.8504959 8.00030286,10.8504959 L8.00030286,10.8504959 Z" id="path-1"></path>
    </defs>
    <g id="Page-1" stroke="none" stroke-width="1" fill="none" fill-rule="evenodd">
        <g id="option-3" transform="translate(-83.000000, -391.000000)">
            <g id="settings-icon" transform="translate(83.000000, 391.000000)">
                <mask id="mask-2" fill="white">
                    <use xlink:href="#path-1"></use>
                </mask>
                <use id="Mask" fill="#FFFFFF" xlink:href="#path-1"></use>
            </g>
        </g>
    </g>
</svg>