<?xml version="1.0" encoding="UTF-8"?>
<svg width="18px" height="16px" viewBox="0 0 18 16" version="1.1" xmlns="http://www.w3.org/2000/svg" xmlns:xlink="http://www.w3.org/1999/xlink">
    <!-- Generator: Sketch 52.2 (67145) - http://www.bohemiancoding.com/sketch -->
    <title>Icon</title>
    <desc>Created with Sketch.</desc>
    <g id="Page-1" stroke="none" stroke-width="1" fill="none" fill-rule="evenodd" stroke-linecap="round" stroke-linejoin="round">
        <g id="option-3" transform="translate(-82.000000, -201.000000)" stroke="#FFFFFF" stroke-width="2">
            <g id="Icon" transform="translate(83.000000, 202.000000)">
                <path d="M15.6190476,14 L0.380952381,14 C0.170666667,14 0,13.8349474 0,13.6315789 L0,0.368421053 C0,0.165052632 0.170666667,0 0.380952381,0 L15.6190476,0 C15.8293333,0 16,0.165052632 16,0.368421053 L16,13.6315789 C16,13.8349474 15.8293333,14 15.6190476,14 L15.6190476,14 Z" id="Stroke-437"></path>
                <path d="M16,10.2236842 L13.7142857,10.2236842 C11.6102857,10.2236842 9.9047619,8.87415789 9.9047619,7.20926316 L9.9047619,6.60652632 C9.9047619,4.94163158 11.6102857,3.59210526 13.7142857,3.59210526 L16,3.59210526" id="Stroke-438"></path>
                <path d="M13.7142857,6.90789474 C13.7142857,7.11126316 13.543619,7.27631579 13.3333333,7.27631579 C13.1230476,7.27631579 12.952381,7.11126316 12.952381,6.90789474 C12.952381,6.70452632 13.1230476,6.53947368 13.3333333,6.53947368 C13.543619,6.53947368 13.7142857,6.70452632 13.7142857,6.90789474 L13.7142857,6.90789474 Z" id="Stroke-439" fill="#FFFFFF"></path>
            </g>
        </g>
    </g>
</svg>