<?xml version="1.0" encoding="UTF-8"?>
<svg width="170px" height="130px" viewBox="0 0 170 130" version="1.1" xmlns="http://www.w3.org/2000/svg" xmlns:xlink="http://www.w3.org/1999/xlink">
    <!-- Generator: Sketch 52.2 (67145) - http://www.bohemiancoding.com/sketch -->
    <title>Quesiton</title>
    <desc>Created with Sketch.</desc>
    <g id="Page-1" stroke="none" stroke-width="1" fill="none" fill-rule="evenodd">
        <g id="Settings-page-3" transform="translate(-569.000000, -258.000000)" fill="#FFFFFF">
            <g id="Group-4" transform="translate(0.000000, -16.000000)">
                <g id="Quesiton" transform="translate(569.000000, 274.000000)">
                    <path d="M74.4304257,1.2427368 C82.0796326,-1.59780843 91.391784,0.845161976 99.3441142,4.40810912 C124.320459,15.6011093 142.516326,36.8485229 156.973106,58.4952032 C162.207487,66.3333486 167.179387,74.5166227 169.147148,83.2666525 C173.153795,101.076313 162.703661,119.513634 144.931152,125.974648 C138.887313,128.173998 132.247388,129.075731 125.597303,129.578198 C113.772107,130.473164 101.528634,130.117885 89.7982699,126.803633 C81.4327437,124.435102 73.5193624,120.625151 65.9294255,116.415934 C44.7328078,104.654486 25.3752512,89.3808457 11.436659,70.7235897 C5.32338983,62.5403156 0.151665759,53.3148879 0.0026442398,43.8729088 C-0.146377279,34.4309296 6.01261435,24.9432717 16.1460776,23.3377462 C20.3356144,22.6745575 24.7673112,23.3648151 29.0906286,24.0753743 C35.4562183,25.1226033 41.9081727,26.2239702 48.200945,25.7671821 C54.7020088,25.2917841 63.1572865,22.7540725 64.342685,16.553597 C65.5975139,9.8963335 66.7913795,4.07989841 74.4304257,1.2427368 Z" id="Path" opacity="0.1"></path>
                    <path d="M109.800217,128 L91.0183908,128 L91.0183908,109.273006 L109.813793,109.273006 L109.800217,128 Z M109.639296,99.7392638 L91.3743538,99.7392638 C91.3743538,70.519015 118.751373,72.226656 118.751373,53.740545 C118.751373,43.558149 110.536636,35.4006456 100.500027,35.4006456 C90.4634181,35.4006456 82.2514,44.1954109 82.2514,54.0302095 L64.0000538,54.0302095 C63.9834152,44.2040366 67.8235937,34.7754609 74.6722766,27.8272972 C81.5209595,20.8791335 90.814541,16.9831743 100.500027,17.0000546 C120.660259,17.0000546 137,33.3178201 137,53.740545 C137,76.8557702 109.6257,79.4875789 109.6257,99.7392638 L109.639296,99.7392638 Z" id="Shape" fill-rule="nonzero"></path>
                    <path d="M47.538795,64 L44.4456003,64 L44.4456003,60.9333538 L47.538795,60.9333538 L47.538795,64 Z M47.4919809,59.3878476 L44.4924144,59.3878476 C44.4924144,54.6364604 48.9917642,54.9131895 48.9917642,51.9039776 C48.9885526,51.1088113 48.6706659,50.3475203 48.1080863,49.7877016 C47.5455067,49.227883 46.7843551,48.9154311 45.9921977,48.9191318 C44.3460064,48.9572976 43.0242882,50.2947942 42.9995665,51.9474885 L40,51.9474885 C40.0414122,48.6598368 42.7015206,46.0128734 45.9769771,46.0000468 C49.2524336,45.9872202 51.933035,48.6132695 52,51.9004968 C51.9913307,55.6598361 47.4919809,56.0879831 47.4919809,59.3808859 L47.4919809,59.3878476 Z" id="Shape" fill-rule="nonzero" opacity="0.1"></path>
                    <path d="M70.552663,84 L67.4594695,84 L67.4594695,81.1108243 L70.552663,81.1108243 L70.552663,84 Z M70.5075828,79.6440373 L67.5080174,79.6440373 C67.5080174,75.1532354 72.0073655,75.4163362 72.0073655,72.5732032 C72.0041549,71.8220719 71.6862128,71.1029646 71.123583,70.5743034 C70.5609532,70.0456423 69.799797,69.7508015 69.0078001,69.7547358 C67.354184,69.7829883 66.0226967,71.050861 65.9995654,72.6192458 L63,72.6192458 C63.0414122,69.51304 65.7015196,67.0121629 68.9769748,67.0000442 C72.2524301,66.9879255 74.9330306,69.4690428 74.9999955,72.5748475 C75.0051971,76.1267084 70.5075828,76.5328703 70.5075828,79.6440373 Z" id="Shape" fill-rule="nonzero" opacity="0.1"></path>
                    <path d="M84.0303149,48 L81.9681222,48 L81.9681222,45.8068813 L84.0303149,45.8068813 L84.0303149,48 Z M84.000012,44.6853021 L82.00002,44.6853021 C82.00002,41.2722504 85.000008,41.4706836 85.000008,39.3103495 C84.9974761,38.7392218 84.7853394,38.1925749 84.4102668,37.7906682 C84.0351943,37.3887615 83.5279107,37.1645181 83.000016,37.1672705 C81.8998463,37.1913385 81.0152734,38.1544606 81.000024,39.3448597 L79.0000319,39.3448597 C78.9943339,37.7987678 79.7514614,36.3668311 80.9862118,35.5884464 C82.2209622,34.8100617 83.7457475,34.8034842 84.9861958,35.5711914 C86.2266442,36.3388986 86.994302,37.7642576 87,39.3103495 C86.9968102,42.0107671 84.000012,42.3196328 84.000012,44.6853021 Z" id="Shape" fill-rule="nonzero" opacity="0.1"></path>
                    <path d="M122.151663,50 L120.862426,50 L120.862426,48.8054753 L122.151663,48.8054753 L122.151663,50 Z M122.132263,48.1999176 L120.874772,48.1999176 C120.874772,46.3450862 122.749544,46.4529252 122.749544,45.2783093 C122.749566,44.9679884 122.617561,44.6705667 122.382975,44.452387 C122.148389,44.2342073 121.830736,44.1134193 121.500872,44.1169658 C120.813493,44.1302927 120.260736,44.6532001 120.250436,45.2998771 L119,45.2998771 C119.030352,44.0249907 120.134947,43.0049659 121.490541,43.0000181 C122.846136,42.9950702 123.959112,44.007001 123.99998,45.2816274 C124.007035,46.739943 122.132263,46.9141445 122.132263,48.1999176 Z" id="Shape" fill-rule="nonzero" opacity="0.1"></path>
                    <path d="M140.144608,106 L138.855372,106 L138.855372,104.805475 L140.144608,104.805475 L140.144608,106 Z M140.125208,104.199918 L138.874772,104.199918 C138.874772,102.343427 140.751308,102.452925 140.751308,101.278309 C140.746454,100.632981 140.186893,100.113288 139.500872,100.116966 C138.813103,100.129436 138.259823,100.652839 138.250436,101.299877 L137,101.299877 C137.030352,100.024991 138.134947,99.0049659 139.490541,99.0000181 C140.846136,98.9950702 141.959112,100.007001 141.99998,101.281627 C142.007035,102.746579 140.132263,102.914144 140.132263,104.199918 L140.125208,104.199918 Z" id="Shape" fill-rule="nonzero" opacity="0.1"></path>
                </g>
            </g>
        </g>
    </g>
</svg>