<?xml version="1.0" encoding="UTF-8"?>
<svg width="20px" height="20px" viewBox="0 0 20 20" version="1.1" xmlns="http://www.w3.org/2000/svg" xmlns:xlink="http://www.w3.org/1999/xlink">
    <!-- Generator: Sketch 52.2 (67145) - http://www.bohemiancoding.com/sketch -->
    <title>Group-Copy Clipped</title>
    <desc>Created with Sketch.</desc>
    <defs>
        <ellipse id="path-1" cx="9.89228674" cy="10" rx="9.89228674" ry="10"></ellipse>
        <ellipse id="path-3" cx="9.89228674" cy="10" rx="9.89228674" ry="10"></ellipse>
        <ellipse id="path-5" cx="9.89228674" cy="10" rx="9.89228674" ry="10"></ellipse>
        <ellipse id="path-7" cx="9.89228674" cy="10" rx="9.89228674" ry="10"></ellipse>
    </defs>
    <g id="Page-1" stroke="none" stroke-width="1" fill="none" fill-rule="evenodd">
        <g id="Main-Dashboard--(-with-the-table-scroll-design-)-" transform="translate(-23.000000, -108.000000)">
            <g id="Wallet-balance" transform="translate(23.000000, 86.000000)">
                <g id="Group-Copy-Clipped" transform="translate(0.000000, 22.000000)">
                    <mask id="mask-2" fill="white">
                        <use xlink:href="#path-1"></use>
                    </mask>
                    <g id="path-1"></g>
                    <g id="Group-Copy" mask="url(#mask-2)">
                        <g transform="translate(-0.975610, -0.975610)">
                            <g id="Stroke-1-Clipped" transform="translate(0.975610, 0.975610)">
                                <mask id="mask-4" fill="white">
                                    <use xlink:href="#path-3"></use>
                                </mask>
                                <g id="path-3"></g>
                                <path d="M9.04425381,19.9448471 C7.79585233,19.8363756 6.83706935,18.7803394 6.83706935,17.5136554 C6.83706935,16.166013 7.9178145,15.0735259 9.25094108,15.0735259 C13.3428112,15.0735259 16.6599307,11.7202876 16.6599307,7.5838886 C16.6599307,3.44746373 13.3428112,0.0942512954 9.25094108,0.0942512954 C8.60348323,0.0942512954 7.95879317,0.180054404 7.33337513,0.34945855 C8.44154188,0.0492772021 9.59299381,-0.0534689119 10.7360399,0.0458575129 C16.1718258,0.5181114 20.1996523,5.35549481 19.7324852,10.850443 C19.2653181,16.3454171 14.4800397,20.417101 9.04425381,19.9448471 Z" id="Stroke-1" fill="#FFFFFF" mask="url(#mask-4)"></path>
                            </g>
                            <g id="Stroke-3-Clipped" transform="translate(0.975610, 0.975610)">
                                <mask id="mask-6" fill="white">
                                    <use xlink:href="#path-5"></use>
                                </mask>
                                <g id="path-3"></g>
                                <path d="M9.46556717,19.4319153 C8.21716569,19.3213084 6.8689727,18.5904694 6.8689727,17.4490356 C6.8689727,16.3076019 7.71260177,15.6372972 9.04468276,15.5619049 C13.9918827,15.2819061 17.3883348,12.0104986 17.3883348,7.79266852 C17.3883348,3.57481204 13.8235834,0.14734456 9.73171327,0.14734456 C9.08425541,0.14734456 8.65074068,0.129152132 8.02532264,0.301891246 C2.75539909,1.75742764 -0.371973047,7.34100356 1.04008682,12.7731851 C2.11637275,16.9136405 5.25011317,19.28958 9.46556717,19.4319153 Z" id="Stroke-3" fill="#000000" mask="url(#mask-6)"></path>
                            </g>
                            <g id="Stroke-3-Copy-Clipped" transform="translate(0.975610, 0.975610)">
                                <mask id="mask-8" fill="white">
                                    <use xlink:href="#path-7"></use>
                                </mask>
                                <g id="path-3"></g>
                                <path d="M8.06053835,19.5690918 C6.13095562,19.006958 5.96147991,17.5618159 6.26257907,16.5750122 C6.66378907,15.2601115 7.8161986,14.887085 9.25590551,14.7091675 C14.0097812,14.1216885 16.5897867,11.4588674 16.5897867,7.53987631 C16.5897867,3.62088521 13.4719312,0.323181152 9.03084753,0.64376831 C8.38455631,0.690421937 6.34574268,0.750951725 5.76818611,1.08711243 C2.11759782,3.21189881 -1.06392056,7.25267098 0.348139299,12.5799767 C1.42442522,16.6404948 3.93224531,19.3717046 8.06053835,19.5690918 Z" id="Stroke-3-Copy" fill="#FFFFFF" mask="url(#mask-8)"></path>
                            </g>
                            <g id="Oval-Copy-2-Clipped">
                                <path d="M10.8678965,21.6006098 C5.06307745,21.6006098 0.357341835,16.8436352 0.357341835,10.9756098 C0.357341835,5.1075843 5.06307745,0.350609756 10.8678965,0.350609756 C16.6727155,0.350609756 21.3784512,5.1075843 21.3784512,10.9756098 C21.3784512,16.8436352 16.6727155,21.6006098 10.8678965,21.6006098 Z M10.8678965,20.3506098 C15.9897957,20.3506098 20.1419153,16.1532793 20.1419153,10.9756098 C20.1419153,5.79794024 15.9897957,1.60060976 10.8678965,1.60060976 C5.74599734,1.60060976 1.59387768,5.79794024 1.59387768,10.9756098 C1.59387768,16.1532793 5.74599734,20.3506098 10.8678965,20.3506098 Z" id="Oval-Copy-2" fill="#000000" fill-rule="nonzero"></path>
                            </g>
                        </g>
                    </g>
                </g>
            </g>
        </g>
    </g>
</svg>