<?xml version="1.0" encoding="UTF-8"?>
<svg width="14px" height="13px" viewBox="0 0 14 13" version="1.1" xmlns="http://www.w3.org/2000/svg" xmlns:xlink="http://www.w3.org/1999/xlink">
    <!-- Generator: Sketch 54.1 (76490) - https://sketchapp.com -->
    <title>Icon/Warning</title>
    <desc>Created with Sketch.</desc>
    <g id="Symbols" stroke="none" stroke-width="1" fill="none" fill-rule="evenodd">
        <g id="Icon/Notification/Warning" transform="translate(-3.000000, -3.000000)" fill="#FFFFFF">
            <g id="Icon/Warning">
                <g id="noun_Warning_936844" transform="translate(3.000000, 3.000000)">
                    <path d="M13.7305139,10.3760107 L8.41462702,0.846396151 C8.12333275,0.324371249 7.58062192,0 6.99803337,0 C6.41544483,0 5.872734,0.324371249 5.58143973,0.846396151 L0.218353876,10.4608115 C-0.0727846253,10.9828365 -0.0727846253,11.6314177 0.218353876,12.1536038 C0.509648149,12.6756288 1.05235898,13 1.63494752,13 L12.3643904,13 C13.2663123,13 14,12.2406617 14,11.3072077 C13.9998442,10.9741307 13.9068481,10.6526613 13.7305139,10.3760107 Z M12.3642347,11.8713106 L1.63494752,11.8713106 C1.44085519,11.8713106 1.25984773,11.7631331 1.16280157,11.5891785 C1.0657554,11.4150628 1.0657554,11.198869 1.16280157,11.0249144 L6.52604319,1.41082147 C6.62308935,1.23670569 6.80409681,1.12868942 6.99818915,1.12868942 C7.19228148,1.12868942 7.37328894,1.23686691 7.47033511,1.41082147 L12.7952567,10.9562354 C12.8017992,10.9680044 12.8088089,10.9796121 12.816286,10.9908974 C12.8775045,11.0840816 12.9097494,11.1935488 12.9097494,11.3072077 C12.9094379,11.6181978 12.6648753,11.8713106 12.3642347,11.8713106 Z M6.9995911,8.58503646 C7.18215628,8.58503646 7.43777869,8.45573937 7.45320015,8.11572995 L7.60897249,4.8380004 C7.60897249,4.48960762 7.33605935,4.20731435 6.9995911,4.20731435 C6.66312285,4.20731435 6.39020971,4.48960762 6.39020971,4.8380004 L6.54598205,8.11572995 C6.56389587,8.47331217 6.79521779,8.58503646 6.9995911,8.58503646 Z M6.9995911,9.1152835 C6.79397161,9.1152835 6.59302529,9.20234139 6.44815702,9.35227442 C6.30328874,9.50220745 6.2207294,9.70840567 6.2207294,9.92137507 C6.2207294,10.1343445 6.30328874,10.3419937 6.44815702,10.4920879 C6.59302529,10.6420209 6.79397161,10.7274666 6.9995911,10.7274666 C7.20505481,10.7274666 7.40600113,10.6420209 7.54946745,10.4920879 C7.69573768,10.3419937 7.77845279,10.1341832 7.77845279,9.92137507 C7.77845279,9.71001786 7.69589345,9.50204623 7.54946745,9.35227442 C7.40600113,9.20234139 7.20505481,9.1152835 6.9995911,9.1152835 Z" id="Shape" fill-rule="nonzero"></path>
                </g>
            </g>
        </g>
    </g>
</svg>